<svg xmlns="http://www.w3.org/2000/svg" xmlns:xlink="http://www.w3.org/1999/xlink" width="310.446" height="310.45" viewBox="0 0 310.446 310.45">
  <defs>
    <linearGradient id="linear-gradient" x1="0.844" y1="0.016" x2="0.164" y2="0.883" gradientUnits="objectBoundingBox">
      <stop offset="0" stop-color="#1976d2"/>
      <stop offset="1" stop-color="#0d3b69"/>
    </linearGradient>
  </defs>
  <g id="Group_171" data-name="Group 171" transform="translate(-14 -13)">
    <circle id="Ellipse_63" data-name="Ellipse 63" cx="155.223" cy="155.223" r="155.223" transform="translate(14 13)" opacity="0.85" fill="url(#linear-gradient)"/>
    <path id="Intersection_1" data-name="Intersection 1" d="M0,38.811A156.817,156.817,0,0,1,1.248,19.035,126.145,126.145,0,0,1,194.027,126.123a125.5,125.5,0,0,1-19.041,66.665,156.705,156.705,0,0,1-19.769,1.247A155.223,155.223,0,0,1,0,38.811Z" transform="translate(14.003 129.414)" fill="#2196f3"/>
    <path id="Intersection_2" data-name="Intersection 2" d="M0,38.811A156.817,156.817,0,0,1,1.248,19.035,126.145,126.145,0,0,1,194.027,126.123a125.5,125.5,0,0,1-19.041,66.665,156.705,156.705,0,0,1-19.769,1.247A155.223,155.223,0,0,1,0,38.811Z" transform="translate(208.029 294.345) rotate(180)" fill="#1d285a"/>
  </g>
</svg>
